<?xml version="1.0" encoding="UTF-8"?>
<svg id="Layer_1" xmlns="http://www.w3.org/2000/svg" version="1.1" viewBox="0 0 60 36">
  <!-- Generator: Adobe Illustrator 29.8.2, SVG Export Plug-In . SVG Version: 2.1.1 Build 3)  -->
  <defs>
    <style>
      .st0 {
        fill: #00b140;
      }

      .st1 {
        stroke-linejoin: round;
        stroke-width: 0px;
      }

      .st1, .st2, .st3, .st4 {
        stroke: #000;
      }

      .st2, .st5 {
        fill: #fff;
      }

      .st2, .st3, .st4 {
        stroke-width: 0px;
      }

      .st3 {
        fill: none;
      }

      .st4 {
        fill: #c8102e;
      }
    </style>
  </defs>
  <path class="st0" d="M-.5,0h60.2v36.1H-.5V0Z"/>
  <path class="st5" d="M-.5,0h60.2v18.1H-.5V0Z"/>
  <g>
    <path class="st4" d="M18.1,8.5c-2,.3-6.9.8-8.8.4l.4.9c3.2-.3,6.3.7,9.1-.3l-.6-1h0Z"/>
    <path class="st4" d="M10.5,10.7c-1.2-.4-3.2-2.5-3.6-3.7,1,.7,3.2,1.5,4.1,1.4-.3.2-.9.7-1.4.8.2.5.7,1.1,1,1.5h0ZM14.5,10.1h0c.4.5,2.2.3,3.2-.3l-.3-.4-.2.3-.3-.3v.5c0,0-.6-.4-.6-.4v.5c0,0-.4-.4-.4-.4v.5c-.1,0-.6-.4-.6-.4l-.2.5c-.1-.2-.2-.4-.2-.6-.2,0-.3.3-.4.5h0ZM14.6,8.5c0,.1.2.5.4.6,0-.2-.2-.5,0-.7l.3.2v-.4c0,0,.4.2.4.2v-.5s.4.2.4.2v-.6c-.6,0-1.3.7-1.4.9ZM50.7,14.3c-.1-.3-.6-.8-1-1l.7-1.6c-.6.1-1.9.2-2.7.1,1.4-1.4,4.4-4.1,5.4-5.4-.4,1.7,0,5.6.6,7-.8-.3-1.6-.9-2.1-1.6-.3,1-.6,2-.8,2.5"/>
    <path class="st4" d="M22.9,6.8c0,.4.1.8.4.9.3.1,1.1.4,1.5,1.1-.6-.1-1.3-.4-1.4.1,0,.5.2.5.5.6.5.1,1,.7,1,1.4-.4-.2-1-.4-1.3-.4s-.5,0-.5.5c-.1.7.1.7.5.8.3,0,1,.4,1.1,1.5-.4-.3-1.1-.5-1.6-.6-.3,0-.3,0-.3.5s0,.6.5.7c.4.1,1,.4,1.1,1.1-.4-.2-1.1-.1-1.3,0-.2,0-.3.6.1,1.5.9-.3,1.8-.5,2.8-.6,2.1-.2,1.6-1.6,1.6-3.8s4.6-4.7,11.6-8.5c-1.7,4.1.6,3.7,1.9,3.3,1.3-.5,4.3-1.7,6.7-2.6-3.2,2.1-4.9,4.3-2,5.2-3.6,1.1-5.3,4.1-3.3,6-1.4-.5-3.3.4-4,1.6,1.4-.1,4.2.2,5.9.7,1.6.4,4.3,0,4.5-1.4,0,0,0-.1,0-.2,0-.5-.1-.8-.3-1.1-.4-.6-1.1-.7-1.5-.7-.6,0-1.2.2-1.2.6s.4.6,1.1.6,1,0,1.6-.5c.2.3.3.6.3,1.1,0,0,0,.1,0,.2-.6.3-1.3.5-2,.5-1.4,0-2.8-.6-2.8-2s1.6-2.3,2.9-2.3,4.3.7,4.3,3.4-4.7,5-7.5,5c.5.4,1,.7,1.6.9,2,.7,3.7,1.7,4.4,3-.8,0-2-.6-2.6-1.2,1.6,1.9-.3,5.3-.1,6.4.2,1.2,1.7.5,1.7,1.4s-.9.7-1.2.3c-.3-.4-1.4-.7-2-.3-.5.3-1.2.5-1.6.2-.3-.3-1.6-.2-2.1.3s-1.2.5-1.4.1c-.2-.4-.2-.8.8-1-.4-.4-1.7.3-1.9-.5-.2-.6.2-.8,1.3-.8-.1-.3-.9-.4-.8-1,.1-.6.8-.9,1.5,0,2,2.2,3,1,3.6,0-.2-.5,0-.8.4-1.2-.2-.4,0-.9,0-1.2-.3-.2-.5-1-.2-1.3-.3,0-.7-.3-.7-.9-.4.2-.9.2-1.2-.1-.4.2-1.5.3-2-.2-.7.3-1.8.2-2.2-.3-.6.1-1.7-.3-1.9-.9-.3,0-.7-.1-1-.3-.9.6-2.1,1.9-.9,2.8s3.7.2,3.7,2.5c-.6-.5-1.6-.3-2-.8-1.2,1.7-2.9,3.2-5.5,3.9.4.2,1.1.3,1.3.2.6,0,1,.4.6.9-.4.5-1.3,0-1.8-.4-.7-.6-1.2-.3-1.4-.1-.2.1-.5.2-.8-.1s-.7-.1-.9.1c-.3.3-1-.4-2,.5-.5.4-1.7-.1-1.2-.8-.5.1-1.4-.6-.7-1.3.7-.6,2,.8,3.1.4-.2-.3-.7-.8-1.8-1-.5,0-.6-.7-.4-1.1.3-.5,1.3-.2,1.9.7.5.7,1.2.7,1.9.5.5-.3,1.2-.3,1.6-.2,0-.3.5-.6.9-.6,0-.4.1-.8.8-.9,0,0,.1,0,.2,0-.4,0-.9-.2-1.2-.5-.9.2-1.9-.2-2-1-1.4,0-1.5-1.5-1.2-2,0,0,0,0,0-.1-.4.3-1,.5-1.6.2-.6.8-1.7,1.2-2.7.9-.3.4-.7.7-1.2.9,0,.5,0,1.1-.7,1.8.2-.9-1.1-1.2-.8-2.8,0,1.1-3.4,2.9-4,5.3.5.2,1,.4,1.4.3.8-.2,1.1.7.9,1-.2.3-.9.5-1.2.2s-.9.1-1.2-.4c-.3-.6-1.1-.4-1.4,0-.3.4-1.4-.5-2.2.4-.3.3-1.3.6-1.9.5-.6-.2-1-.8-.8-1.1-.4-.4-.4-.8,0-1.2-.1-.5.3-1.6,1.1-1.2.5.3,2.3,1.5,3.8,0,1.3-1.3.6-2.3,1.4-2.4-.1-.5.2-1.1.6-1.3-.1-.2-.1-.5,0-.7-.2,0-.4,0-.6-.1-.7.2-1.4.3-2,.3,0,.5-.6,1.7-1.2,2.3-.2-4.7-4.6-5.1-5.2-8.8,0,.6-.6,1.1-.7,1.6,0,.5-.4.8-.9.6s-.7-1.1-.1-1.2c.5-.1.4-1,.8-1.1.3-.1.4-.4.3-.9-.1-.4,0-.9.2-1.2.1-.3,0-.8-.5-1-.5-.2-.6-.7-.4-1.1-.5-.3-.3-1.1.3-1.2.8-.2.8,1.1,1.3,1.3,0-.3,0-.7.2-1.1-.3-.6,0-1,.6-1,.9,0,.6,1.5.4,1.9.3-.4.8-.9,1.2-.6.4.3.3,1,0,1.4-.3.3-1,.7-.8,1.1.4.7.6,1.5.7,2.5.6.4.9.9.9,1.2.4,0,1.1.3,1.2.7.4,0,1.1,0,1.3.4.1,0,.5,0,.8,0,0-.3.1-.7.3-.9-.8-.8-.7-2.1,0-2.6-.2-.5-.1-1.5.6-2,0-.5.1-1.2.9-1.7-.1-.6.3-1.4.7-1.4-.1-.6,0-1.2.6-1.5-.2-.2-.2-.4-.2-.6-1.1.2-1.6.9-1.9,1.5,0-.3-.1-.6-.3-.8,0,.7-.5.9-.5,1.8-.4-.4-.5-1-.5-1.4,0-.3-.6-.7-.4-1.2.9.8,2.7-.9,4.2-.4-1.5-3.1-2.6-1.6-3.4-1.1s-1.3-.3-1.2-.8c-1-.2-2.3-.2-3.6,0,1-1.2,3.4-1.8,5.1-1.7.8-1.3,1.7-1.1,2.6-1,.6,0,1.3,0,1.9,0,.4-1.1,2.9-1.2,3.1-2.1.2.2,0,.8-.1,1.4.6-.2,1.2-.4,1.4-.8.1.4,0,1.3-.3,1.6.3,0,.5,0,.8,0-.8.4-1.8,1.1-1.9,1.2-.2.1-.2.3.2.5-.4,0-1.7.5-2.2.2"/>
    <path class="st4" d="M6,12.6c.6-.4,1.4-.1,1.6.5.1.4-.6.7-.6.3,0-.5-.4-.8-.9-.8ZM8.4,11.3c.7-.2,1.4.3,1.4.9,0,.4-.7.5-.7.1,0-.5-.2-.8-.7-1ZM10.9,12.4c.7.3.8,1.1.3,1.5-.3.3-.9-.2-.6-.4.4-.3.5-.7.3-1.2ZM5.7,21c.6.4,1.4.2,1.6-.4.1-.4-.5-.7-.6-.3,0,.5-.4.8-1,.8ZM9.7,29.5c.2-.7,1.1-.8,1.6-.5.3.3,0,.9-.3.6-.4-.3-.8-.4-1.3-.1h0ZM9,31.3c0-.7,1-1.1,1.6-.9.4.2.2.8-.1.7-.4-.2-1.1-.2-1.5.2h0ZM10,32.9c-.2-.6.3-1.3.9-1.3.4,0,.5.7.1.7-.5,0-.9.2-1.1.7ZM20.5,32.3c0-.7-.6-1.2-1.2-1.1-.4,0-.3.8,0,.7.5-.2.9,0,1.2.4h0ZM24.5,32.5c-.1-.7.5-1.3,1.1-1.2.4,0,.4.8,0,.7-.5-.1-.9,0-1.1.5h0ZM34.5,32.4c0-.7-.6-1.2-1.2-1-.4.1-.3.8,0,.7.5-.2.9,0,1.2.4ZM23.3,31.1c-.1-.7.6-1.3,1.2-1.1.4,0,.3.8,0,.7-.5-.2-.9,0-1.2.4h0ZM24.2,29.1c0-.7.9-1.1,1.5-.9.4.2.1.9-.2.7-.4-.2-.9-.2-1.2.2h0ZM39.5,32.9c-.1-.7.5-1.3,1.1-1.2.4,0,.4.8,0,.7-.5-.1-.9,0-1.1.5h0ZM49.4,32.6c.2-.7-.5-1.3-1.1-1.2-.4,0-.4.8,0,.7.5-.1.9,0,1.1.5h0ZM38.2,31.3c-.1-.7.5-1.2,1.2-1.1.4,0,.4.8,0,.7-.5-.2-.9,0-1.2.4h0ZM38.6,29.5c0-.7.7-1.1,1.3-.9.4.1.2.8-.1.7-.4-.2-.9-.2-1.2.2h0Z"/>
  </g>
  <g>
    <path class="st3" d="M41.1,6.9c-1.7.6-8.2,3-9.4,3.4-1.2.4-1.8.5-2.5,2"/>
    <path class="st3" d="M37.9,5.1c-4.3,2.6-7.7,4.9-8.7,7.1-1,2.2-.9,3.5-3.3,3.9M19.1,20.1c1.1-1.2,3.3-2.6,5.4-2.7-.4.6-.8,1.3-1.1,2M23.4,20.2c.5-.7,1.9-2.1,2.7-2.7-.4,1.1-1.1,3.9-.7,5.7.2-1.8,1.2-4.5,2.2-6.1.8,1.7,1.8,4.2,1.8,5.8.2-1.9-.2-5.1-.9-6.5,1.8.9,4.1,3.4,5.1,5-.7-2.2-2.9-4.9-4.1-5.7,3,.5,7.3,2.3,8.9,3.7-2.6-2.3-5.8-4.1-8.1-5,3.6-.3,10.2.5,12.1,1.2-2.8-1.5-8.6-2.3-12-2.1,3.6-1.5,10.1-3.2,15.4-3.9-4,.2-9.2,1.2-14.4,2.4,2.4-1.5,9.6-4.4,11.4-4.9M20.2,5.9c.3-1,1.6-1.3,2.7-1.6"/>
    <path class="st3" d="M21.9,6.7c-.9,0-1-.4-.6-.7.3-.2,1-.6,1.4-.6-.1,0-.4-.1-.6-.1.5-.2,1.2-.5,1.5-.7M20.9,5c-.3,0-.7,0-1.1,0M18.6,10c-.2,0-.4,0-.6,0M15,20.8c0,.6.2,1.2.6,1.7.4.4,2.5.5,2.6-.2M15.3,19.9c.8.8,3.2.3,3.2-.3M15.4,17.3c.3.6,3.1,1.2,3.2.5M16,15.3c0,.7,2.6,1.2,2.7.7M16.8,13.6c.1.6,1.8,1.1,2.1.9M17.6,12.2c0,.4,1.3.8,1.7.6M18.2,10.7c.3.3.7.6,1.6.7M13.9,7.7c0-.4.5-.5.4-1M18.6,9.5c.2.2.6.7.6,1.1.2-.2.4-.5.5-.7.2.2.4.4.4.7,0-.3.2-.7.3-1,.3,0,.6.2.9.4,0-.3,0-.6-.3-.8.2,0,.5,0,.7-.1-.2-.2-.4-.5-.6-.6.2,0,.5-.3.7-.4-.2,0-.6-.3-.8-.4.1-.1.2-.4.3-.6M14.9,6.1c-.1,0-.2.3,0,.5.2.1.2.7-.2.9"/>
    <path class="st3" d="M20.1,10.6c-1,2.2-1.9,6.3-1.6,9.2M19.6,23.8c0,.4.7.5.7-.5M20.2,23.8c0,.4.8.5.7-.7"/>
    <path class="st3" d="M19.9,24.1c0,.8.6.8.6,0M20.9,23.6c.2.5.8.3.7-.9"/>
    <path class="st3" d="M21.6,23.2c.2.4.8,0,.9-.7M18.7,20.8c-.4.4-.8,1.3-.3,2.1.3.5,1.2.8,1.3.5"/>
    <path class="st3" d="M18.4,23c-.3,0-.9.8-.6,1.4.2.5,1.2.8,1.4.4M28.9,23.6c1.1.1,2.6-.6,2.7-2M31.4,22.2c.6.4,1.9.5,2.4-.5M32,22.5c-.6,1.3-1.1,2.6,0,3.6,1,.8,1.7-.4,2.9.8.4.4,0,1-3.6,3M14.2,20.9c.2.5.2,1.4-.2,1.3M10.7,31.4c.8-1.1,1.6-.2,2.3-.4"/>
  </g>
  <path class="st2" d="M16.6,6.3c-.1.3.2.7.6.8.4,0,.9-.2.8-.6"/>
  <g>
    <path class="st3" d="M16.2,6.3c.2-.3,2.5.6,3.5,0M8.7,14.2c0,.2,0,.8.3,1.1M25.2,31.2c.2-.2.8-.4,1.3-.3.5.1,1.3,0,1.9-.3M20.1,10.6c-.2,2.1.3,5.3,1.6,6.7M19.4,12.4c0,1.8.5,4,1.4,5.2M18.9,14.4c.2,1.4.6,2.8,1.3,3.7M18.6,16.5c.2.8.5,1.6.9,2.2M18.5,18.6c.1.3.3.5.4.8"/>
    <path class="st3" d="M20,11.9c0,.7-.5,1.2-.9,1.5M20.1,12.8c0,.7-.5,1.2-1.1,1.5M20.2,13.7c0,.7-.7,1.5-1.5,1.8M20.4,14.6c0,.7-.9,1.7-1.8,2M20.7,15.5c-.3.9-1.3,1.9-2.2,2.2M21.1,16.4c0,.7-1.4,2-2.6,2.4M12.9,20.5c.1.6-.3,1.2-.6,1"/>
    <path class="st3" d="M15.5,22.6c-2.3-.5-4-1.2-5-3-.2-.5.4-.6.4-1M10.2,16c-.4-.7-.5-1.4-.3-1.9"/>
    <path class="st3" d="M11.8,19.7c0,.4-.5.9-.6.7M15.6,22.5c-.3.6.2,1.8,1.4,2.2M17.8,24.4c-.1,0-.2.2-.3.4M18.8,25.7c-.2.3-1,0-1.1-.2M15.6,29.1c-.9.9-1.9.9-3,1.1-1.2.1-1.5-.4-1.9,0M23.2,22.5c.1.6,0,1.2-.4,2.1-.3.5,0,1,0,1.7M28.3,24.2c.5-.4.8-1,1-1.5M26.7,24.5c.6-.8.7-1.8.2-2.6M23.9,25.4c.3-.5.5-1.2.5-2.2M17,26.7c0,.4.8.6.9.4"/>
    <path class="st3" d="M22.6,21.6c0,.4-.4.7-.8.5,0,.6-.4.8-.8.5,0,.9-.7,1-1.2.3-.6,2.6-2.4,4.5-2.6,5.8,0,.3-1.2.2-.9-.7M30.6,24c-.7,0-1.8-.3-2.3.2M30.9,26c-.6.2-1.1.3-1.5.3M32.6,27.8c.6,0,1.2-.4,1.5-1.4M31.4,27.3c.5-.1,1-.5,1.2-.9"/>
    <path class="st3" d="M34.4,28c-.4-.1-1.2-.3-1.8-.2M32.2,29.4c.2-.1-.2-.7-.6-.7M27.6,30.4c.6-.2,1.1-.5,1.6-.8M30.7,29.3c.3,0,.7.5.6.6M33.6,21.4c.4.6,1,1,1.9.6,0,.2.3.4.5.5M38.5,21.3c.4.3-.3,1.6-1.5,1.5"/>
    <path class="st3" d="M44.7,28.9c.2.4.7.3,1,0,.3-.4.7-1.5.4-3.7-.3-2.2-2.5-2.5-5.2-3-2.6-.5-3.3-1.3-3.8-2.8"/>
    <path class="st3" d="M45.2,27.7c.2.4.8.3.9,0M45.2,26.5c.3.2,1,.1,1-.3M45.1,25.2c.3,0,1.1,0,1-.3M44.3,24.3c.2-.2.9-.9.6-1.1M43.1,24.2c.4-.2.9-1.4.4-1.5M41.1,24c.7-.3,1.3-1.6.8-1.7M38.9,23.7c1.1-.3,1.4-1.7,1-1.8M40.4,29.9c1.1,0,1.8.7,2.2.9M40.1,18.4c1,0,2,1.4,3.5,2.5M51.5,11.8c.2-.7.4-1.3.4-1.6M41,31.2c.3,0,.5,0,.8,0M51.1,9.6c-.2.4-.5,1.2-.8,2M23.2,16.6c-2,.6-4,1.9-5.3,4.2.7.2,2.1,0,2.7-.2,0,.6,0,1.3,0,1.7.6-.5,1.4-1.1,2-1.3,0,.6,0,1.5,0,1.9.8-.8,2.4-.9,2.9.3.4-1.9,3.3-1.9,4-.3.8-1.5,2.8-2,4.2-1.5.6-1.6,3.1-2.4,4.8-2-.5-.7-.4-1.5,0-2.2"/>
  </g>
  <path class="st1" d="M16.9,6.3l.9.2s-.6.8-.9-.2Z"/>
</svg>